<svg width="177" height="40" xmlns="http://www.w3.org/2000/svg" xmlns:xlink="http://www.w3.org/1999/xlink" overflow="hidden"><defs><clipPath id="clip0"><rect x="53" y="1001" width="177" height="40"/></clipPath></defs><g clip-path="url(#clip0)" transform="translate(-53 -1001)"><path d="M176.98 6.01625C176.98 9.32814 174.372 11.9338 170.982 11.9338 167.63 11.9338 164.954 9.32814 164.954 6.01625 164.954 2.76796 167.63 0.160112 170.982 0.160112 174.372 0.160112 176.98 2.76576 176.98 6.01625M166.452 6.01625C166.452 8.61532 168.378 10.6836 171.017 10.6836 173.587 10.6836 175.476 8.61532 175.476 6.04695 175.476 3.4413 173.587 1.34011 170.979 1.34011 168.378 1.33792 166.452 3.4413 166.452 6.01625M170.056 9.07591 168.701 9.07591 168.701 3.22855C169.234 3.12108 169.981 3.0487 170.946 3.0487 172.052 3.0487 172.552 3.22855 172.982 3.47639 173.302 3.72643 173.55 4.18922 173.55 4.76167 173.55 5.40651 173.05 5.90219 172.337 6.11714L172.337 6.18952C172.909 6.40007 173.23 6.82777 173.407 7.61517 173.585 8.50565 173.695 8.86535 173.835 9.07591L172.372 9.07591C172.199 8.86535 172.087 8.32799 171.909 7.65026 171.802 7.00762 171.444 6.72468 170.694 6.72468L170.054 6.72468 170.054 9.07591ZM170.091 5.75963 170.732 5.75963C171.484 5.75963 172.089 5.50959 172.089 4.90204 172.089 4.36688 171.697 4.01375 170.841 4.01375 170.486 4.01375 170.236 4.04665 170.093 4.08394L170.093 5.75963Z" fill="#D9D9D9" transform="matrix(1 0 0 1.01318 53.0099 1001)"/><path d="M176.651 5.84297C176.651 9.15268 174.052 11.7517 170.668 11.7517 167.323 11.7517 164.652 9.15048 164.652 5.84297 164.652 2.59907 167.323 0 170.668 0 174.052 0 176.651 2.59907 176.651 5.84297M166.148 5.84297C166.148 8.43985 168.067 10.5059 170.705 10.5059 173.269 10.5059 175.153 8.44205 175.153 5.87587 175.153 3.2768 173.267 1.17342 170.668 1.17342 168.064 1.17342 166.148 3.2768 166.148 5.84297M169.742 8.90264 168.391 8.90264 168.391 3.06186C168.924 2.95658 169.672 2.8842 170.635 2.8842 171.738 2.8842 172.234 3.06186 172.664 3.3119 172.984 3.56193 173.232 4.02691 173.232 4.59717 173.232 5.23762 172.732 5.7355 172.021 5.95045L172.021 6.02283C172.596 6.23558 172.912 6.66108 173.092 7.44628 173.269 8.33457 173.374 8.69427 173.517 8.90483L172.061 8.90483C171.881 8.69427 171.776 8.15911 171.598 7.48138 171.49 6.84312 171.135 6.5558 170.387 6.5558L169.745 6.5558 169.745 8.90264ZM169.777 5.59294 170.418 5.59294C171.168 5.59294 171.771 5.3429 171.771 4.73535 171.771 4.20019 171.379 3.84487 170.525 3.84487 170.17 3.84487 169.92 3.87996 169.777 3.91944L169.777 5.59294Z" fill="#D9D9D9" transform="matrix(1 0 0 1.01318 53.0099 1001)"/><path d="M49.4635 3.38208C48.6915 2.48063 47.5465 1.7042 46.0156 1.05059 44.4781 0.394796 42.3594 0.0679926 39.6616 0.0679926 36.9572 0.0679926 34.8385 0.394796 33.3076 1.05059 31.7723 1.7042 30.6274 2.48063 29.8619 3.38208 29.0899 4.28134 28.6205 5.19375 28.4362 6.11714 28.2586 7.04271 28.1709 7.75115 28.1709 8.24684L28.1709 10.0059 28.1709 35.9374C28.1709 37.5012 29.4408 38.7733 31.0068 38.7733 32.5772 38.7733 33.8471 37.5012 33.8471 35.9374L33.8471 10.0059 33.8471 9.39613C33.8471 8.99037 33.8998 8.55171 34.0138 8.07796 34.1257 7.60639 34.3867 7.14361 34.7903 6.69398 35.1982 6.24216 35.7685 5.87149 36.5164 5.57978 37.2577 5.28587 38.236 5.13892 39.4532 5.13892 40.7626 5.13892 41.8067 5.28587 42.5962 5.57978 43.3858 5.87368 43.9824 6.21803 44.3882 6.62599 44.7896 7.03175 45.0637 7.47041 45.2019 7.94855 45.3357 8.42011 45.4015 8.85658 45.4015 9.26454L45.4015 10.0081 45.4015 38.7755 51.1458 38.7755 51.1458 9.05836 51.1458 8.24684C51.1458 7.75115 51.0558 7.04052 50.8738 6.11714 50.7049 5.19375 50.229 4.28134 49.4635 3.38208" fill="#D9D9D9" fill-rule="evenodd" transform="matrix(1 0 0 1.01318 53.0099 1001)"/><path d="M59.1119 0.60974C57.5239 0.60974 56.2386 1.89721 56.2386 3.48297 56.2386 16.202 56.2715 26.0521 56.2715 38.7755L61.9478 38.7755C61.9478 26.0521 61.9851 16.202 61.9851 3.48297 61.9829 1.89502 60.6954 0.60974 59.1119 0.60974" fill="#D9D9D9" fill-rule="evenodd" transform="matrix(1 0 0 1.01318 53.0099 1001)"/><path d="M17.3008 29.4452 17.3008 30.1887C17.3008 30.5484 17.235 30.9673 17.099 31.4389 16.963 31.9148 16.6845 32.3513 16.2568 32.7571 15.8247 33.1606 15.2325 33.5116 14.4671 33.8033 13.7016 34.0928 12.662 34.2441 11.357 34.2441 10.1419 34.2441 9.15706 34.0972 8.41572 33.8033 7.67219 33.5094 7.09974 33.1497 6.68959 32.7198 6.28602 32.2921 6.02283 31.8425 5.91316 31.3687 5.80569 30.8949 5.74428 30.4585 5.74428 30.0505L5.74428 29.443 5.74428 3.48517C5.74428 1.89502 4.4568 0.60974 2.87323 0.60974 1.28309 0.60974 0 1.89502 0 3.48517L0 29.4474 0 31.1384C0 31.6341 0.0899257 32.3425 0.267584 33.2681 0.449628 34.1915 0.92119 35.1039 1.68665 36.0054 2.45212 36.9046 3.60361 37.681 5.13234 38.3346 6.66985 38.9904 8.78859 39.3172 11.4886 39.3172 14.1929 39.3172 16.3094 38.9904 17.8404 38.3346 22.6657 36.2817 23.0495 33.4962 23.0495 28.6029L23.0495 0.60974 17.3008 0.60974 17.3008 29.4452Z" fill="#D9D9D9" fill-rule="evenodd" transform="matrix(1 0 0 1.01318 53.0099 1001)"/><path d="M100.916 9.39833C100.916 8.27097 101.267 7.31468 101.963 6.52509 102.662 5.7355 103.597 5.34071 104.768 5.34071L108.825 5.34071 113.76 5.34071C115.065 5.34071 116.125 4.28134 116.125 2.97851 116.125 1.6713 115.065 0.611933 113.76 0.611933L102.877 0.611933C101.57 0.611933 100.44 0.846617 99.4951 1.32257 98.5475 1.79413 97.758 2.40167 97.1307 3.1474 96.499 3.88654 96.0274 4.71342 95.7116 5.61268 95.3958 6.51413 95.2378 7.39584 95.2378 8.24903L95.2378 10.0081 95.2378 29.3816 95.2378 31.1428C95.2378 31.996 95.398 32.8777 95.7116 33.777 96.0274 34.6762 96.5034 35.5053 97.1307 36.2422 97.758 36.9858 98.5475 37.5977 99.4951 38.0671 100.44 38.543 101.572 38.7821 102.877 38.7821L116.125 38.7821 116.125 34.0467 108.825 34.0467 104.768 34.0467C103.597 34.0467 102.66 33.6497 101.963 32.8645 101.267 32.0749 100.916 31.1384 100.916 30.0593L100.916 29.3816 100.916 21.251 113.153 21.251 113.153 15.9125 100.916 15.9125 100.916 10.0059 100.916 9.39833Z" fill="#D9D9D9" fill-rule="evenodd" transform="matrix(1 0 0 1.01318 53.0099 1001)"/><path d="M160.186 6.11714C160.006 5.19375 159.532 4.28134 158.765 3.38208 157.999 2.48063 156.85 1.69981 155.317 1.05059 153.788 0.396989 151.669 0.0679926 148.963 0.0679926 146.8 0.0679926 145.044 0.282937 143.69 0.710632 142.339 1.14052 141.21 1.66691 140.308 2.29859 139.455 1.66691 138.35 1.13833 136.996 0.710632 135.645 0.282937 133.888 0.0679926 131.724 0.0679926 129.021 0.0679926 126.905 0.396989 125.37 1.05059 123.839 1.69981 122.681 2.48063 121.891 3.38208 121.101 4.28134 120.617 5.19375 120.437 6.11714 120.255 7.04271 120.165 7.75115 120.165 8.24684L120.165 10.0059 120.165 35.9374 120.198 35.9374C120.198 37.5034 121.472 38.7733 123.038 38.7733 124.606 38.7733 125.876 37.5034 125.876 35.9374L125.911 35.9374 125.911 10.0059 125.911 9.39833C125.911 8.99257 125.968 8.5539 126.082 8.08015 126.192 7.60859 126.455 7.1458 126.859 6.69178 127.265 6.23996 127.837 5.87149 128.583 5.57758 129.324 5.28368 130.307 5.13673 131.522 5.13673 132.827 5.13673 133.866 5.28368 134.632 5.57758 135.397 5.87149 135.996 6.21803 136.424 6.62379 136.849 7.02955 137.132 7.46822 137.268 7.94197 137.404 8.41572 137.47 8.85439 137.47 9.26015L137.47 10.0037 137.47 38.7711 143.214 38.7711 143.214 10.0059 143.214 9.39833C143.214 8.99257 143.271 8.5539 143.385 8.08015 143.497 7.60859 143.745 7.1458 144.129 6.69178 144.511 6.23996 145.074 5.87149 145.82 5.57758 146.561 5.28368 147.566 5.13673 148.827 5.13673 150.134 5.13673 151.169 5.28368 151.935 5.57758 152.703 5.87149 153.297 6.22022 153.729 6.62379 154.157 7.02955 154.437 7.46822 154.573 7.94197 154.707 8.41572 154.775 8.85439 154.775 9.26015L154.775 10.0037 154.775 38.7711 160.454 38.7711 160.454 9.05836 160.454 8.24684C160.458 7.75115 160.366 7.04271 160.186 6.11714" fill="#D9D9D9" fill-rule="evenodd" transform="matrix(1 0 0 1.01318 53.0099 1001)"/><path d="M90.0507 8.17885C90.0507 7.68316 89.9629 6.97472 89.7809 6.05134 89.5989 5.12576 89.1273 4.21554 88.3596 3.31409 87.5986 2.41483 86.4449 1.6384 84.9118 0.982602 83.3808 0.326803 81.2643 0 78.5577 0 75.8556 0 73.7368 0.326803 72.2059 0.982602 70.675 1.63621 69.5235 2.41483 68.758 3.31409 67.9926 4.21773 67.5166 5.12576 67.339 6.05134 67.1569 6.97472 67.0692 7.68316 67.0692 8.17885L67.0692 9.94007 67.0692 29.3772 67.0692 31.0682C67.0692 31.5639 67.1569 32.2745 67.339 33.1979 67.5166 34.1213 67.9926 35.0337 68.758 35.9352 69.5213 36.8344 70.675 37.6152 72.2059 38.2667 73.739 38.9203 75.8578 39.2449 78.5577 39.2449 81.2643 39.2449 83.3808 38.9203 84.9118 38.2667 86.4449 37.6152 87.5986 36.8322 88.3596 35.9352 89.1273 35.0337 89.5989 34.1323 89.7809 33.2286 89.9629 32.3316 90.0507 31.6078 90.0507 31.066L90.0507 30.3905 90.0507 27.605 90.0507 23.4114 90.0507 21.2488C90.0507 16.588 87.0129 15.4913 82.861 15.4913L82.861 15.4979 78.3187 15.4979 78.3187 21.3475C78.3187 21.3475 82.067 21.3124 82.861 21.3562 83.0716 21.3716 83.2712 21.4308 83.462 21.5186 83.8458 21.7006 84.0783 22.0274 84.1704 22.5012 84.2603 22.9727 84.3064 23.5912 84.3064 24.3611L84.3064 29.3728 84.3064 30.1185C84.3064 30.476 84.2362 30.8971 84.1046 31.3709 83.9664 31.8425 83.6901 32.2833 83.2602 32.6891 82.8325 33.0948 82.2381 33.4436 81.4683 33.7353 80.7028 34.027 79.6654 34.1739 78.3581 34.1739 77.1431 34.1739 76.1604 34.0292 75.4191 33.7353 74.6734 33.4436 74.1009 33.0839 73.6974 32.654 73.2894 32.2263 73.0328 31.7767 72.9209 31.3051 72.8069 30.8291 72.7521 30.3905 72.7521 29.9847L72.7521 29.375 72.7521 9.94007 72.7521 9.33033C72.7521 8.92457 72.8069 8.48372 72.9209 8.01216 73.0328 7.5406 73.2916 7.07781 73.6974 6.62818 74.1009 6.17636 74.6756 5.80569 75.4191 5.51178 76.1604 5.22007 77.1452 5.07093 78.3581 5.07093 79.6654 5.07093 80.7028 5.22007 81.4683 5.51178 82.2381 5.80569 82.8325 6.15881 83.2602 6.56019 83.6901 6.96595 83.9686 7.40242 84.1046 7.87617 84.2362 8.34773 84.3064 8.79078 84.3064 9.19435L84.3064 9.81506 84.3064 10.5981C84.3064 12.186 85.5917 13.4735 87.1774 13.4735 88.7632 13.4735 90.0507 12.186 90.0507 10.5981L90.0507 9.93788 90.0507 8.17885Z" fill="#D9D9D9" fill-rule="evenodd" transform="matrix(1 0 0 1.01318 53.0099 1001)"/><path d="M90.2174 8.35431C90.2174 7.85643 90.1296 7.1458 89.9476 6.22022 89.7655 5.29465 89.2918 4.38223 88.5219 3.48078 87.7565 2.57714 86.6072 1.79851 85.0697 1.14271 83.5365 0.489108 81.4134 0.162305 78.7047 0.162305 75.9959 0.162305 73.8706 0.489108 72.3375 1.14271 70.8022 1.79851 69.6529 2.57714 68.883 3.48078 68.1154 4.38223 67.6395 5.29465 67.4596 6.22022 67.2819 7.1458 67.1898 7.85643 67.1898 8.35431L67.1898 10.1177 67.1898 29.5921 67.1898 31.2875C67.1898 31.7854 67.2819 32.4939 67.4596 33.4194 67.6416 34.345 68.1176 35.2618 68.883 36.1633 69.6485 37.0669 70.8022 37.8477 72.3375 38.4991 73.8706 39.1549 75.9959 39.4817 78.7047 39.4817 81.4112 39.4817 83.5365 39.1549 85.0697 38.4991 86.605 37.8477 87.7565 37.0669 88.5219 36.1633 89.2918 35.2596 89.7655 34.3582 89.9476 33.4567 90.1252 32.5575 90.2174 31.8271 90.2174 31.2897L90.2174 30.612 90.2174 27.8221 90.2174 23.6241 90.2174 21.4571C90.2174 16.7876 87.1752 15.6887 83.0167 15.6887L83.0167 15.6931 78.4634 15.6931 78.4634 21.5536C78.4634 21.5536 82.2206 21.5207 83.0167 21.5668 83.2229 21.5778 83.4247 21.6392 83.6133 21.7269 83.9993 21.909 84.234 22.2358 84.3261 22.7117 84.4139 23.1877 84.4621 23.8062 84.4621 24.5716L84.4621 29.5965 84.4621 30.3444C84.4621 30.7041 84.3941 31.123 84.2603 31.5968 84.1244 32.0706 83.8436 32.5092 83.4115 32.915 82.9838 33.3229 82.3873 33.6717 81.6174 33.9656 80.8475 34.2551 79.8123 34.4042 78.5029 34.4042 77.2834 34.4042 76.3008 34.2573 75.5529 33.9656 74.8116 33.6717 74.2347 33.3098 73.8268 32.8821 73.421 32.45 73.1622 32.0004 73.0481 31.5266 72.9363 31.0551 72.8815 30.612 72.8815 30.2062L72.8815 29.5943 72.8815 10.1177 72.8815 9.5058C72.8815 9.10223 72.9363 8.66138 73.0481 8.18543 73.16 7.71387 73.421 7.25108 73.8268 6.79706 74.2347 6.34305 74.8094 5.97238 75.5529 5.68067 76.3008 5.38896 77.2834 5.23981 78.5029 5.23981 79.8101 5.23981 80.8475 5.38896 81.6174 5.68067 82.3873 5.97457 82.9838 6.32331 83.4115 6.73126 83.8414 7.13483 84.1244 7.57788 84.2603 8.04944 84.3963 8.521 84.4621 8.96405 84.4621 9.36981L84.4621 9.98833 84.4577 9.98833 84.4577 10.7779C84.4577 12.3659 85.7496 13.6555 87.3354 13.6555 88.9277 13.6555 90.213 12.3659 90.213 10.7779L90.213 10.1133 90.2174 10.1133 90.2174 8.35431Z" fill="#D9D9D9" fill-rule="evenodd" transform="matrix(1 0 0 1.01318 53.0099 1001)"/></g></svg>